<?xml version="1.0" encoding="UTF-8"?>
<svg width="1333px" height="750px" viewBox="0 0 1333 750" version="1.1" xmlns="http://www.w3.org/2000/svg" xmlns:xlink="http://www.w3.org/1999/xlink">
    <!-- Generator: Sketch 55 (78076) - https://sketchapp.com -->
    <title>presentation</title>
    <desc>Created with Sketch.</desc>
    <g id="presentation" stroke="none" stroke-width="1" fill="none" fill-rule="evenodd">
        <rect id="Rectangle" fill="#323439" x="0" y="0" width="1333" height="750"></rect>
        <path d="M181.742,476 L60.242,476 L60.242,295.1 L122.882,295.1 L122.882,424.97 L181.742,424.97 L181.742,476 Z M319.226,383.66 L319.226,434.96 C320.846008,436.220006 323.005987,437.209996 325.706,437.93 L324.896,476.27 C310.85593,478.430011 301.226026,479.51 296.006,479.51 C290.785974,479.51 286.016022,478.745008 281.696,477.215 C277.375978,475.684992 274.496007,474.110008 273.056,472.49 L270.896,470.06 C259.735944,476.360031 246.19108,479.51 230.261,479.51 C214.33092,479.51 202.316041,475.865036 194.216,468.575 C186.11596,461.284964 182.066,449.540081 182.066,433.34 C182.066,417.139919 186.655954,406.295027 195.836,400.805 C205.016046,395.314973 219.505901,392.210004 239.306,391.49 L258.746,390.68 L258.746,388.25 C258.746,384.829983 254.966038,383.12 247.406,383.12 C231.025918,383.12 214.646082,384.019991 198.266,385.82 L189.356,386.63 L188.006,345.59 C211.766119,339.289968 233.455902,336.14 253.076,336.14 C273.596103,336.14 289.525943,339.199969 300.866,345.32 C313.106061,351.800032 319.226,364.579905 319.226,383.66 Z M248.486,437.93 C251.906017,437.93 255.325983,436.580014 258.746,433.88 L258.746,423.89 L249.566,424.43 C244.885977,424.790002 242.546,427.129978 242.546,431.45 C242.546,435.770022 244.52598,437.93 248.486,437.93 Z M392.99,476 L332.51,476 L332.51,339.65 L392.72,339.65 L392.72,346.67 C404.060057,339.649965 413.959958,336.14 422.42,336.14 C441.860097,336.14 455.449961,341.404947 463.19,351.935 C470.930039,362.465053 474.8,381.049867 474.8,407.69 L474.8,476 L414.32,476 L414.32,411.74 C414.32,396.079922 411.080032,388.25 404.6,388.25 L392.99,390.14 L392.99,476 Z M501.044,528.92 C486.643928,524.239977 479.444,513.89008 479.444,497.87 C479.444,491.389968 480.703987,485.630025 483.224,480.59 C485.744013,475.549975 490.243968,470.510025 496.724,465.47 C490.243968,460.969978 487.004,454.220045 487.004,445.22 C487.004,443.23999 488.308987,440.585017 490.919,437.255 C493.529013,433.924983 496.183987,431.180011 498.884,429.02 L502.664,425.51 C488.083927,418.669966 480.794,405.710095 480.794,386.63 C480.794,367.549905 485.968948,354.365036 496.319,347.075 C506.669052,339.784964 523.81388,336.14 547.754,336.14 C553.69403,336.14 561.523951,336.859993 571.244,338.3 L575.564,339.11 L625.514,338.3 L625.514,373.67 L612.824,373.67 C614.444008,378.170022 615.254,381.859986 615.254,384.74 C615.254,404.180097 610.30405,417.184967 600.404,423.755 C590.503951,430.325033 573.674119,433.61 549.914,433.61 C546.313982,433.61 542.894016,433.340003 539.654,432.8 C538.933996,433.880005 538.574,434.959995 538.574,436.04 C538.574,437.840009 549.193894,438.74 570.434,438.74 C591.674106,438.74 606.028963,441.889969 613.499,448.19 C620.969037,454.490031 624.704,465.964917 624.704,482.615 C624.704,499.265083 618.584061,512.224954 606.344,521.495 C594.103939,530.765046 576.644113,535.4 553.964,535.4 C531.283887,535.4 513.644063,533.240022 501.044,528.92 Z M528.854,490.31 C528.854,492.650012 535.693932,493.82 549.374,493.82 C563.054068,493.82 569.894,492.380014 569.894,489.5 C569.894,487.699991 568.724012,486.575002 566.384,486.125 C564.043988,485.674998 559.274036,485.45 552.074,485.45 L531.284,484.37 C529.663992,485.270005 528.854,487.249985 528.854,490.31 Z M539.924,392.03 C541.544008,393.470007 544.243981,394.19 548.024,394.19 C551.804019,394.19 554.503992,393.470007 556.124,392.03 C557.744008,390.589993 558.554,388.070018 558.554,384.47 C558.554,380.869982 557.744008,378.350007 556.124,376.91 C554.503992,375.469993 551.804019,374.75 548.024,374.75 C544.243981,374.75 541.544008,375.469993 539.924,376.91 C538.303992,378.350007 537.494,380.869982 537.494,384.47 C537.494,388.070018 538.303992,390.589993 539.924,392.03 Z M710.888,339.65 L771.368,339.65 L771.368,476 L711.428,476 L711.428,469.52 C699.907942,476.180033 689.648045,479.51 680.648,479.51 C661.567905,479.51 648.248038,473.975055 640.688,462.905 C633.127962,451.834945 629.348,434.240121 629.348,410.12 L629.348,339.65 L689.828,339.65 L689.828,406.07 C689.828,414.170041 690.547993,419.749985 691.988,422.81 C693.428007,425.870015 695.767984,427.4 699.008,427.4 L710.888,425.78 L710.888,339.65 Z M913.982,383.66 L913.982,434.96 C915.602008,436.220006 917.761987,437.209996 920.462,437.93 L919.652,476.27 C905.61193,478.430011 895.982026,479.51 890.762,479.51 C885.541974,479.51 880.772022,478.745008 876.452,477.215 C872.131978,475.684992 869.252007,474.110008 867.812,472.49 L865.652,470.06 C854.491944,476.360031 840.94708,479.51 825.017,479.51 C809.08692,479.51 797.072041,475.865036 788.972,468.575 C780.87196,461.284964 776.822,449.540081 776.822,433.34 C776.822,417.139919 781.411954,406.295027 790.592,400.805 C799.772046,395.314973 814.261901,392.210004 834.062,391.49 L853.502,390.68 L853.502,388.25 C853.502,384.829983 849.722038,383.12 842.162,383.12 C825.781918,383.12 809.402082,384.019991 793.022,385.82 L784.112,386.63 L782.762,345.59 C806.522119,339.289968 828.211902,336.14 847.832,336.14 C868.352103,336.14 884.281943,339.199969 895.622,345.32 C907.862061,351.800032 913.982,364.579905 913.982,383.66 Z M843.242,437.93 C846.662017,437.93 850.081983,436.580014 853.502,433.88 L853.502,423.89 L844.322,424.43 C839.641977,424.790002 837.302,427.129978 837.302,431.45 C837.302,435.770022 839.28198,437.93 843.242,437.93 Z M943.196,528.92 C928.795928,524.239977 921.596,513.89008 921.596,497.87 C921.596,491.389968 922.855987,485.630025 925.376,480.59 C927.896013,475.549975 932.395968,470.510025 938.876,465.47 C932.395968,460.969978 929.156,454.220045 929.156,445.22 C929.156,443.23999 930.460987,440.585017 933.071,437.255 C935.681013,433.924983 938.335986,431.180011 941.036,429.02 L944.816,425.51 C930.235927,418.669966 922.946,405.710095 922.946,386.63 C922.946,367.549905 928.120948,354.365036 938.471,347.075 C948.821052,339.784964 965.96588,336.14 989.906,336.14 C995.84603,336.14 1003.67595,336.859993 1013.396,338.3 L1017.716,339.11 L1067.666,338.3 L1067.666,373.67 L1054.976,373.67 C1056.59601,378.170022 1057.406,381.859986 1057.406,384.74 C1057.406,404.180097 1052.45605,417.184967 1042.556,423.755 C1032.65595,430.325033 1015.82612,433.61 992.066,433.61 C988.465982,433.61 985.046016,433.340003 981.806,432.8 C981.085996,433.880005 980.726,434.959995 980.726,436.04 C980.726,437.840009 991.345894,438.74 1012.586,438.74 C1033.82611,438.74 1048.18096,441.889969 1055.651,448.19 C1063.12104,454.490031 1066.856,465.964917 1066.856,482.615 C1066.856,499.265083 1060.73606,512.224954 1048.496,521.495 C1036.25594,530.765046 1018.79611,535.4 996.116,535.4 C973.435887,535.4 955.796063,533.240022 943.196,528.92 Z M971.006,490.31 C971.006,492.650012 977.845932,493.82 991.526,493.82 C1005.20607,493.82 1012.046,492.380014 1012.046,489.5 C1012.046,487.699991 1010.87601,486.575002 1008.536,486.125 C1006.19599,485.674998 1001.42604,485.45 994.226,485.45 L973.436,484.37 C971.815992,485.270005 971.006,487.249985 971.006,490.31 Z M982.076,392.03 C983.696008,393.470007 986.395981,394.19 990.176,394.19 C993.956019,394.19 996.655992,393.470007 998.276,392.03 C999.896008,390.589993 1000.706,388.070018 1000.706,384.47 C1000.706,380.869982 999.896008,378.350007 998.276,376.91 C996.655992,375.469993 993.956019,374.75 990.176,374.75 C986.395981,374.75 983.696008,375.469993 982.076,376.91 C980.455992,378.350007 979.646,380.869982 979.646,384.47 C979.646,388.070018 980.455992,390.589993 982.076,392.03 Z M1127.66,425.51 C1127.84,431.810031 1131.88996,434.96 1139.81,434.96 C1157.81009,434.96 1175.80991,434.420005 1193.81,433.34 L1204.34,432.53 L1205.69,471.68 C1181.74988,476.900026 1157.94512,479.51 1134.275,479.51 C1110.60488,479.51 1093.50505,474.065054 1082.975,463.175 C1072.44495,452.284946 1067.18,434.645122 1067.18,410.255 C1067.18,385.864878 1072.84994,367.415063 1084.19,354.905 C1095.53006,342.394937 1113.21488,336.14 1137.245,336.14 C1161.27512,336.14 1179.13994,341.269949 1190.84,351.53 C1202.54006,361.790051 1208.39,377.539894 1208.39,398.78 L1205.69,425.51 L1127.66,425.51 Z M1147.91,392.57 C1147.91,387.349974 1147.14501,383.660011 1145.615,381.5 C1144.08499,379.339989 1141.43002,378.26 1137.65,378.26 C1133.86998,378.26 1131.26001,379.339989 1129.82,381.5 C1128.37999,383.660011 1127.57,387.349974 1127.39,392.57 L1147.91,392.57 Z M1215.734,476 L1215.734,422.54 L1277.294,422.54 L1277.294,476 L1215.734,476 Z M1217.624,410.12 L1213.844,295.1 L1279.184,295.1 L1275.404,410.12 L1217.624,410.12 Z" id="Language!" fill="#4BF797" fill-rule="nonzero"></path>
        <path d="M55.148,569.368 L55.148,555.76 L91.148,555.76 L91.148,569.368 L81.788,569.368 L81.788,604 L65.084,604 L65.084,569.368 L55.148,569.368 Z M110.401829,604 L94.273829,604 L94.273829,554.32 L110.401829,554.32 L110.401829,567.928 C113.761846,567.111996 116.32982,566.704 118.105829,566.704 C123.337855,566.704 126.997819,568.071986 129.085829,570.808 C131.173839,573.544014 132.217829,578.343966 132.217829,585.208 L132.217829,604 L116.089829,604 L116.089829,586.864 C116.089829,582.687979 115.177838,580.6 113.353829,580.6 L110.401829,581.032 L110.401829,604 Z M151.471658,590.536 C151.519658,592.216008 152.599647,593.056 154.711658,593.056 C159.511682,593.056 164.311634,592.912001 169.111658,592.624 L171.919658,592.408 L172.279658,602.848 C165.895626,604.240007 159.54769,604.936 153.235658,604.936 C146.923626,604.936 142.363672,603.484015 139.555658,600.58 C136.747644,597.675985 135.343658,592.972033 135.343658,586.468 C135.343658,579.963967 136.855643,575.044017 139.879658,571.708 C142.903673,568.371983 147.619626,566.704 154.027658,566.704 C160.43569,566.704 165.199642,568.071986 168.319658,570.808 C171.439674,573.544014 172.999658,577.743972 172.999658,583.408 L172.279658,590.536 L151.471658,590.536 Z M156.871658,581.752 C156.871658,580.359993 156.66766,579.376003 156.259658,578.8 C155.851656,578.223997 155.143663,577.936 154.135658,577.936 C153.127653,577.936 152.43166,578.223997 152.047658,578.8 C151.663656,579.376003 151.447658,580.359993 151.399658,581.752 L156.871658,581.752 Z M208.411316,604 L192.283316,604 L192.283316,567.64 L208.411316,567.64 L208.411316,571.024 C211.435331,568.143986 213.979306,566.704 216.043316,566.704 L216.043316,581.68 C214.411308,581.68 212.299329,582.327994 209.707316,583.624 L208.411316,584.272 L208.411316,604 Z M222.985145,571.24 C226.201161,568.215985 231.025113,566.704 237.457145,566.704 C243.889177,566.704 248.701129,568.203985 251.893145,571.204 C255.085161,574.204015 256.681145,579.087966 256.681145,585.856 C256.681145,592.624034 255.085161,597.495985 251.893145,600.472 C248.701129,603.448015 243.889177,604.936 237.457145,604.936 C231.025113,604.936 226.213161,603.448015 223.021145,600.472 C219.829129,597.495985 218.233145,592.624034 218.233145,585.856 C218.233145,579.087966 219.817129,574.216015 222.985145,571.24 Z M235.153145,590.608 C235.585147,591.472004 236.353139,591.904 237.457145,591.904 C238.561151,591.904 239.329143,591.472004 239.761145,590.608 C240.193147,589.743996 240.409145,588.148012 240.409145,585.82 C240.409145,583.491988 240.193147,581.896004 239.761145,581.032 C239.329143,580.167996 238.561151,579.736 237.457145,579.736 C236.353139,579.736 235.585147,580.167996 235.153145,581.032 C234.721143,581.896004 234.505145,583.491988 234.505145,585.82 C234.505145,588.148012 234.721143,589.743996 235.153145,590.608 Z M295.446974,579.376 L295.446974,593.056 C295.878976,593.392002 296.45497,593.655999 297.174974,593.848 L296.958974,604.072 C293.214955,604.648003 290.646981,604.936 289.254974,604.936 C287.862967,604.936 286.59098,604.732002 285.438974,604.324 C284.286968,603.915998 283.518976,603.496002 283.134974,603.064 L282.558974,602.416 C279.582959,604.096008 275.970995,604.936 271.722974,604.936 C267.474953,604.936 264.270985,603.96401 262.110974,602.02 C259.950963,600.07599 258.870974,596.944022 258.870974,592.624 C258.870974,588.303978 260.094962,585.412007 262.542974,583.948 C264.990986,582.483993 268.854948,581.656001 274.134974,581.464 L279.318974,581.248 L279.318974,580.6 C279.318974,579.687995 278.310984,579.232 276.294974,579.232 C271.926952,579.232 267.558996,579.471998 263.190974,579.952 L260.814974,580.168 L260.454974,569.224 C266.791006,567.543992 272.574948,566.704 277.806974,566.704 C283.279001,566.704 287.526959,567.519992 290.550974,569.152 C293.81499,570.880009 295.446974,574.287975 295.446974,579.376 Z M276.582974,593.848 C277.494979,593.848 278.406969,593.488004 279.318974,592.768 L279.318974,590.104 L276.870974,590.248 C275.622968,590.344 274.998974,590.967994 274.998974,592.12 C274.998974,593.272006 275.526969,593.848 276.582974,593.848 Z M337.668803,554.32 L337.668803,604 L321.756803,604 L321.612803,602.416 C318.97279,604.096008 316.452815,604.936 314.052803,604.936 C308.772777,604.936 305.076814,603.316016 302.964803,600.076 C300.852792,596.835984 299.796803,592.096031 299.796803,585.856 C299.796803,573.087936 305.10075,566.704 315.708803,566.704 L321.540803,567.136 L321.540803,554.32 L337.668803,554.32 Z M319.236803,579.736 C317.940797,579.736 317.088805,580.263995 316.680803,581.32 C316.272801,582.376005 316.068803,583.87599 316.068803,585.82 C316.068803,587.76401 316.284801,589.263995 316.716803,590.32 C317.148805,591.376005 318.012797,591.904 319.308803,591.904 L321.540803,591.688 L321.540803,579.952 C320.484798,579.807999 319.716805,579.736 319.236803,579.736 Z M375.600461,580.672 L375.600461,588.16 C375.600461,589.360006 375.756459,590.163998 376.068461,590.572 C376.380463,590.980002 377.016456,591.184 377.976461,591.184 L381.216461,591.112 L381.432461,603.64 C377.30444,604.504004 374.136472,604.936 371.928461,604.936 C367.464439,604.936 364.272471,604.012009 362.352461,602.164 C360.432451,600.315991 359.472461,596.896025 359.472461,591.904 L359.472461,580.672 L356.664461,580.672 L356.664461,567.64 L359.472461,567.64 L359.472461,560.44 L375.600461,560.44 L375.600461,567.64 L381.432461,567.64 L381.432461,580.672 L375.600461,580.672 Z M388.87829,571.24 C392.094306,568.215985 396.918258,566.704 403.35029,566.704 C409.782322,566.704 414.594274,568.203985 417.78629,571.204 C420.978306,574.204015 422.57429,579.087966 422.57429,585.856 C422.57429,592.624034 420.978306,597.495985 417.78629,600.472 C414.594274,603.448015 409.782322,604.936 403.35029,604.936 C396.918258,604.936 392.106306,603.448015 388.91429,600.472 C385.722274,597.495985 384.12629,592.624034 384.12629,585.856 C384.12629,579.087966 385.710274,574.216015 388.87829,571.24 Z M401.04629,590.608 C401.478292,591.472004 402.246284,591.904 403.35029,591.904 C404.454296,591.904 405.222288,591.472004 405.65429,590.608 C406.086292,589.743996 406.30229,588.148012 406.30229,585.82 C406.30229,583.491988 406.086292,581.896004 405.65429,581.032 C405.222288,580.167996 404.454296,579.736 403.35029,579.736 C402.246284,579.736 401.478292,580.167996 401.04629,581.032 C400.614288,581.896004 400.39829,583.491988 400.39829,585.82 C400.39829,588.148012 400.614288,589.743996 401.04629,590.608 Z M459.065948,566.704 C462.377965,566.704 466.049928,567.183995 470.081948,568.144 L472.097948,568.576 L471.593948,581.32 C466.649923,580.935998 463.337956,580.744 461.657948,580.744 C459.97794,580.744 458.837951,581.115996 458.237948,581.86 C457.637945,582.604004 457.337948,583.923991 457.337948,585.82 C457.337948,587.716009 457.637945,589.023996 458.237948,589.744 C458.837951,590.464004 459.90594,590.824 461.441948,590.824 L471.737948,590.32 L472.241948,602.92 C467.633925,604.264007 463.241969,604.936 459.065948,604.936 C452.153913,604.936 447.425961,603.508014 444.881948,600.652 C442.337935,597.795986 441.065948,592.804036 441.065948,585.676 C441.065948,578.547964 442.433934,573.604014 445.169948,570.844 C447.905962,568.083986 452.537915,566.704 459.065948,566.704 Z M475.799777,604 L475.799777,554.32 L491.927777,554.32 L491.927777,604 L475.799777,604 Z M511.541606,590.536 C511.589606,592.216008 512.669595,593.056 514.781606,593.056 C519.58163,593.056 524.381582,592.912001 529.181606,592.624 L531.989606,592.408 L532.349606,602.848 C525.965574,604.240007 519.617638,604.936 513.305606,604.936 C506.993574,604.936 502.43362,603.484015 499.625606,600.58 C496.817592,597.675985 495.413606,592.972033 495.413606,586.468 C495.413606,579.963967 496.925591,575.044017 499.949606,571.708 C502.973621,568.371983 507.689574,566.704 514.097606,566.704 C520.505638,566.704 525.26959,568.071986 528.389606,570.808 C531.509622,573.544014 533.069606,577.743972 533.069606,583.408 L532.349606,590.536 L511.541606,590.536 Z M516.941606,581.752 C516.941606,580.359993 516.737608,579.376003 516.329606,578.8 C515.921604,578.223997 515.213611,577.936 514.205606,577.936 C513.197601,577.936 512.501608,578.223997 512.117606,578.8 C511.733604,579.376003 511.517606,580.359993 511.469606,581.752 L516.941606,581.752 Z M571.763435,579.376 L571.763435,593.056 C572.195437,593.392002 572.771431,593.655999 573.491435,593.848 L573.275435,604.072 C569.531416,604.648003 566.963442,604.936 565.571435,604.936 C564.179428,604.936 562.907441,604.732002 561.755435,604.324 C560.603429,603.915998 559.835437,603.496002 559.451435,603.064 L558.875435,602.416 C555.89942,604.096008 552.287456,604.936 548.039435,604.936 C543.791414,604.936 540.587446,603.96401 538.427435,602.02 C536.267424,600.07599 535.187435,596.944022 535.187435,592.624 C535.187435,588.303978 536.411423,585.412007 538.859435,583.948 C541.307447,582.483993 545.171409,581.656001 550.451435,581.464 L555.635435,581.248 L555.635435,580.6 C555.635435,579.687995 554.627445,579.232 552.611435,579.232 C548.243413,579.232 543.875457,579.471998 539.507435,579.952 L537.131435,580.168 L536.771435,569.224 C543.107467,567.543992 548.891409,566.704 554.123435,566.704 C559.595462,566.704 563.84342,567.519992 566.867435,569.152 C570.131451,570.880009 571.763435,574.287975 571.763435,579.376 Z M552.899435,593.848 C553.81144,593.848 554.72343,593.488004 555.635435,592.768 L555.635435,590.104 L553.187435,590.248 C551.939429,590.344 551.315435,590.967994 551.315435,592.12 C551.315435,593.272006 551.84343,593.848 552.899435,593.848 Z M593.105264,604 L576.977264,604 L576.977264,567.64 L593.033264,567.64 L593.033264,569.512 C596.057279,567.639991 598.697253,566.704 600.953264,566.704 C606.13729,566.704 609.761254,568.107986 611.825264,570.916 C613.889274,573.724014 614.921264,578.679964 614.921264,585.784 L614.921264,604 L598.793264,604 L598.793264,586.864 C598.793264,582.687979 597.929273,580.6 596.201264,580.6 L593.105264,581.104 L593.105264,604 Z M651.988922,566.704 C655.300939,566.704 658.972902,567.183995 663.004922,568.144 L665.020922,568.576 L664.516922,581.32 C659.572897,580.935998 656.26093,580.744 654.580922,580.744 C652.900914,580.744 651.760925,581.115996 651.160922,581.86 C650.560919,582.604004 650.260922,583.923991 650.260922,585.82 C650.260922,587.716009 650.560919,589.023996 651.160922,589.744 C651.760925,590.464004 652.828914,590.824 654.364922,590.824 L664.660922,590.32 L665.164922,602.92 C660.556899,604.264007 656.164943,604.936 651.988922,604.936 C645.076887,604.936 640.348935,603.508014 637.804922,600.652 C635.260909,597.795986 633.988922,592.804036 633.988922,585.676 C633.988922,578.547964 635.356908,573.604014 638.092922,570.844 C640.828936,568.083986 645.460889,566.704 651.988922,566.704 Z M672.250751,571.24 C675.466767,568.215985 680.290719,566.704 686.722751,566.704 C693.154783,566.704 697.966735,568.203985 701.158751,571.204 C704.350767,574.204015 705.946751,579.087966 705.946751,585.856 C705.946751,592.624034 704.350767,597.495985 701.158751,600.472 C697.966735,603.448015 693.154783,604.936 686.722751,604.936 C680.290719,604.936 675.478767,603.448015 672.286751,600.472 C669.094735,597.495985 667.498751,592.624034 667.498751,585.856 C667.498751,579.087966 669.082735,574.216015 672.250751,571.24 Z M684.418751,590.608 C684.850753,591.472004 685.618745,591.904 686.722751,591.904 C687.826757,591.904 688.594749,591.472004 689.026751,590.608 C689.458753,589.743996 689.674751,588.148012 689.674751,585.82 C689.674751,583.491988 689.458753,581.896004 689.026751,581.032 C688.594749,580.167996 687.826757,579.736 686.722751,579.736 C685.618745,579.736 684.850753,580.167996 684.418751,581.032 C683.986749,581.896004 683.770751,583.491988 683.770751,585.82 C683.770751,588.148012 683.986749,589.743996 684.418751,590.608 Z M746.44058,554.32 L746.44058,604 L730.52858,604 L730.38458,602.416 C727.744567,604.096008 725.224592,604.936 722.82458,604.936 C717.544554,604.936 713.848591,603.316016 711.73658,600.076 C709.624569,596.835984 708.56858,592.096031 708.56858,585.856 C708.56858,573.087936 713.872527,566.704 724.48058,566.704 L730.31258,567.136 L730.31258,554.32 L746.44058,554.32 Z M728.00858,579.736 C726.712574,579.736 725.860582,580.263995 725.45258,581.32 C725.044578,582.376005 724.84058,583.87599 724.84058,585.82 C724.84058,587.76401 725.056578,589.263995 725.48858,590.32 C725.920582,591.376005 726.784574,591.904 728.08058,591.904 L730.31258,591.688 L730.31258,579.952 C729.256575,579.807999 728.488582,579.736 728.00858,579.736 Z M766.054409,590.536 C766.102409,592.216008 767.182398,593.056 769.294409,593.056 C774.094433,593.056 778.894385,592.912001 783.694409,592.624 L786.502409,592.408 L786.862409,602.848 C780.478377,604.240007 774.130441,604.936 767.818409,604.936 C761.506377,604.936 756.946423,603.484015 754.138409,600.58 C751.330395,597.675985 749.926409,592.972033 749.926409,586.468 C749.926409,579.963967 751.438394,575.044017 754.462409,571.708 C757.486424,568.371983 762.202377,566.704 768.610409,566.704 C775.018441,566.704 779.782393,568.071986 782.902409,570.808 C786.022425,573.544014 787.582409,577.743972 787.582409,583.408 L786.862409,590.536 L766.054409,590.536 Z M771.454409,581.752 C771.454409,580.359993 771.250411,579.376003 770.842409,578.8 C770.434407,578.223997 769.726414,577.936 768.718409,577.936 C767.710404,577.936 767.014411,578.223997 766.630409,578.8 C766.246407,579.376003 766.030409,580.359993 765.982409,581.752 L771.454409,581.752 Z M805.570067,567.64 L823.354067,567.64 L824.074067,590.536 L824.938067,590.536 L826.594067,568.576 L841.210067,568.576 L843.514067,590.536 L844.378067,590.536 L845.170067,567.64 L861.082067,567.64 L857.410067,604 L834.442067,604 L833.218067,588.304 L831.850067,604 L809.890067,604 L805.570067,567.64 Z M864.279896,604 L864.279896,567.64 L880.407896,567.64 L880.407896,604 L864.279896,604 Z M864.207896,565.336 L864.207896,554.32 L880.479896,554.32 L880.479896,565.336 L864.207896,565.336 Z M902.469725,580.672 L902.469725,588.16 C902.469725,589.360006 902.625723,590.163998 902.937725,590.572 C903.249727,590.980002 903.88572,591.184 904.845725,591.184 L908.085725,591.112 L908.301725,603.64 C904.173704,604.504004 901.005736,604.936 898.797725,604.936 C894.333703,604.936 891.141735,604.012009 889.221725,602.164 C887.301715,600.315991 886.341725,596.896025 886.341725,591.904 L886.341725,580.672 L883.533725,580.672 L883.533725,567.64 L886.341725,567.64 L886.341725,560.44 L902.469725,560.44 L902.469725,567.64 L908.301725,567.64 L908.301725,580.672 L902.469725,580.672 Z M928.059554,604 L911.931554,604 L911.931554,554.32 L928.059554,554.32 L928.059554,567.928 C931.419571,567.111996 933.987545,566.704 935.763554,566.704 C940.99558,566.704 944.655544,568.071986 946.743554,570.808 C948.831564,573.544014 949.875554,578.343966 949.875554,585.208 L949.875554,604 L933.747554,604 L933.747554,586.864 C933.747554,582.687979 932.835563,580.6 931.011554,580.6 L928.059554,581.032 L928.059554,604 Z M1006.67121,569.656 C999.903178,568.935996 994.983227,568.576 991.911212,568.576 C988.839197,568.576 987.051215,568.659999 986.547212,568.828 C986.043209,568.996001 985.791212,569.343997 985.791212,569.872 C985.791212,570.400003 986.079209,570.807999 986.655212,571.096 C987.231215,571.384001 989.043197,571.863997 992.091212,572.536 C995.139227,573.208003 997.635202,573.867997 999.579212,574.516 C1001.52322,575.164003 1003.2752,576.075994 1004.83521,577.252 C1006.39522,578.428006 1007.42721,579.867991 1007.93121,581.572 C1008.43521,583.276009 1008.68721,585.567986 1008.68721,588.448 C1008.68721,594.40003 1007.10323,598.647987 1003.93521,601.192 C1000.7672,603.736013 995.991244,605.008 989.607212,605.008 C986.535197,605.008 983.307229,604.792002 979.923212,604.36 C976.539195,603.927998 973.935221,603.496002 972.111212,603.064 L969.303212,602.416 L970.023212,589.672 C977.367249,590.728005 983.391188,591.256 988.095212,591.256 C990.591224,591.256 991.839212,590.704006 991.839212,589.6 C991.839212,589.119998 991.551215,588.772001 990.975212,588.556 C990.399209,588.339999 988.839225,588.040002 986.295212,587.656 C979.575178,586.599995 975.003224,584.956011 972.579212,582.724 C970.1552,580.491989 968.943212,576.832025 968.943212,571.744 C968.943212,565.263968 970.503196,560.824012 973.623212,558.424 C976.743228,556.023988 981.54318,554.824 988.023212,554.824 C992.583235,554.824 997.935181,555.279995 1004.07921,556.192 L1007.10321,556.696 L1006.67121,569.656 Z M1010.51704,567.64 L1028.30104,567.64 L1029.02104,590.536 L1029.88504,590.536 L1031.54104,568.576 L1046.15704,568.576 L1048.46104,590.536 L1049.32504,590.536 L1050.11704,567.64 L1066.02904,567.64 L1062.35704,604 L1039.38904,604 L1038.16504,588.304 L1036.79704,604 L1014.83704,604 L1010.51704,567.64 Z M1069.22687,604 L1069.22687,567.64 L1085.35487,567.64 L1085.35487,604 L1069.22687,604 Z M1069.15487,565.336 L1069.15487,554.32 L1085.42687,554.32 L1085.42687,565.336 L1069.15487,565.336 Z M1107.1287,580.672 L1107.1287,604 L1091.0007,604 L1091.0007,580.672 L1089.0567,580.672 L1089.0567,567.64 L1091.0007,567.64 L1091.0007,567.352 C1091.0007,562.167974 1091.86469,558.54401 1093.5927,556.48 C1095.32071,554.41599 1098.58467,553.384 1103.3847,553.384 C1105.73671,553.384 1108.49668,553.623998 1111.6647,554.104 L1113.0327,554.32 L1113.0327,565.984 C1109.09668,565.984 1107.1287,566.295997 1107.1287,566.92 L1107.1287,567.64 L1112.8887,567.64 L1112.8887,580.672 L1107.1287,580.672 Z M1133.58253,580.672 L1133.58253,588.16 C1133.58253,589.360006 1133.73853,590.163998 1134.05053,590.572 C1134.36253,590.980002 1134.99852,591.184 1135.95853,591.184 L1139.19853,591.112 L1139.41453,603.64 C1135.28651,604.504004 1132.11854,604.936 1129.91053,604.936 C1125.44651,604.936 1122.25454,604.012009 1120.33453,602.164 C1118.41452,600.315991 1117.45453,596.896025 1117.45453,591.904 L1117.45453,580.672 L1114.64653,580.672 L1114.64653,567.64 L1117.45453,567.64 L1117.45453,560.44 L1133.58253,560.44 L1133.58253,567.64 L1139.41453,567.64 L1139.41453,580.672 L1133.58253,580.672 Z M1175.58836,604 L1143.18836,604 L1143.18836,555.76 L1159.89236,555.76 L1159.89236,590.392 L1175.58836,590.392 L1175.58836,604 Z M1178.64219,604 L1178.64219,567.64 L1194.77019,567.64 L1194.77019,604 L1178.64219,604 Z M1178.57019,565.336 L1178.57019,554.32 L1194.84219,554.32 L1194.84219,565.336 L1178.57019,565.336 Z M1215.32001,604 L1199.19201,604 L1199.19201,567.64 L1215.24801,567.64 L1215.24801,569.512 C1218.27203,567.639991 1220.912,566.704 1223.16801,566.704 C1228.35204,566.704 1231.976,568.107986 1234.04001,570.916 C1236.10403,573.724014 1237.13601,578.679964 1237.13601,585.784 L1237.13601,604 L1221.00801,604 L1221.00801,586.864 C1221.00801,582.687979 1220.14402,580.6 1218.41601,580.6 L1215.32001,581.104 L1215.32001,604 Z M1258.83784,580.672 L1258.83784,588.16 C1258.83784,589.360006 1258.99384,590.163998 1259.30584,590.572 C1259.61785,590.980002 1260.25384,591.184 1261.21384,591.184 L1264.45384,591.112 L1264.66984,603.64 C1260.54182,604.504004 1257.37386,604.936 1255.16584,604.936 C1250.70182,604.936 1247.50985,604.012009 1245.58984,602.164 C1243.66983,600.315991 1242.70984,596.896025 1242.70984,591.904 L1242.70984,580.672 L1239.90184,580.672 L1239.90184,567.64 L1242.70984,567.64 L1242.70984,560.44 L1258.83784,560.44 L1258.83784,567.64 L1264.66984,567.64 L1264.66984,580.672 L1258.83784,580.672 Z" id="TheroadtocleancodewithSwiftLint" fill="#FFFFFF" fill-rule="nonzero"></path>
        <path d="M70.625,223 L50.875,55.5 L108.625,55.5 L116.625,164.5 L121.125,164.5 L132.375,58 L195.625,58 L208.125,164.5 L212.625,164.5 L217.625,55.5 L275.875,55.5 L257.375,223 L172.625,223 L164.375,120 L161.875,119.75 L153.375,223 L70.625,223 Z M400.675,137.5 L400.675,185 C402.175008,186.166673 404.174988,187.08333 406.675,187.75 L405.925,223.25 C392.924935,225.25001 384.008358,226.25 379.175,226.25 C374.341643,226.25 369.92502,225.541674 365.925,224.125 C361.92498,222.708326 359.25834,221.250008 357.925,219.75 L355.925,217.5 C345.591615,223.333363 333.050074,226.25 318.3,226.25 C303.549926,226.25 292.425038,222.875034 284.925,216.125 C277.424963,209.374966 273.675,198.500075 273.675,183.5 C273.675,168.499925 277.924958,158.458359 286.425,153.375 C294.925043,148.291641 308.341575,145.41667 326.675,144.75 L344.675,144 L344.675,141.75 C344.675,138.583317 341.175035,137 334.175,137 C319.008258,137 303.841743,137.833325 288.675,139.5 L280.425,140.25 L279.175,102.25 C301.17511,96.4166375 321.258243,93.5 339.425,93.5 C358.425095,93.5 373.174948,96.333305 383.675,102 C395.00839,108.00003 400.675,119.833245 400.675,137.5 Z M335.175,187.75 C338.341683,187.75 341.508318,186.500012 344.675,184 L344.675,174.75 L336.175,175.25 C331.841645,175.583335 329.675,177.74998 329.675,181.75 C329.675,185.75002 331.508315,187.75 335.175,187.75 Z M472.725,142 L472.725,168 C472.725,172.166687 473.266661,174.958326 474.35,176.375 C475.433339,177.791674 477.64165,178.5 480.975,178.5 L492.225,178.25 L492.975,221.75 C478.641595,224.750015 467.641705,226.25 459.975,226.25 C444.474923,226.25 433.3917,223.041699 426.725,216.625 C420.0583,210.208301 416.725,198.33342 416.725,181 L416.725,142 L406.975,142 L406.975,96.75 L416.725,96.75 L416.725,71.75 L472.725,71.75 L472.725,96.75 L492.975,96.75 L492.975,142 L472.725,142 Z M559.275,93.5 C570.775058,93.5 583.52493,95.16665 597.525,98.5 L604.525,100 L602.775,144.25 C585.608248,142.91666 574.108363,142.25 568.275,142.25 C562.441638,142.25 558.483344,143.541654 556.4,146.125 C554.316656,148.708346 553.275,153.291634 553.275,159.875 C553.275,166.458366 554.316656,170.999988 556.4,173.5 C558.483344,176.000012 562.19164,177.25 567.525,177.25 L603.275,175.5 L605.025,219.25 C589.02492,223.91669 573.775073,226.25 559.275,226.25 C535.27488,226.25 518.858378,221.291716 510.025,211.375 C501.191623,201.458284 496.775,184.125124 496.775,159.375 C496.775,134.624876 501.524953,117.458381 511.025,107.875 C520.525048,98.2916187 536.60822,93.5 559.275,93.5 Z M667.575,223 L611.575,223 L611.575,50.5 L667.575,50.5 L667.575,97.75 C679.241725,94.9166525 688.158303,93.5 694.325,93.5 C712.491758,93.5 725.199964,98.2499525 732.45,107.75 C739.700036,117.250047 743.325,133.916547 743.325,157.75 L743.325,223 L687.325,223 L687.325,163.5 C687.325,148.999928 684.158365,141.75 677.825,141.75 L667.575,143.25 L667.575,223 Z M896.425,223 L838.425,223 L838.425,170.5 L790.675,55.5 L852.175,55.5 L867.925,104.75 L884.175,55.5 L945.425,55.5 L896.425,170.5 L896.425,223 Z M935.975,109.25 C947.141723,98.7499475 963.891555,93.5 986.225,93.5 C1008.55845,93.5 1025.26661,98.7082812 1036.35,109.125 C1047.43339,119.541719 1052.975,136.499883 1052.975,160 C1052.975,183.500117 1047.43339,200.416615 1036.35,210.75 C1025.26661,221.083385 1008.55845,226.25 986.225,226.25 C963.891555,226.25 947.183389,221.083385 936.1,210.75 C925.016611,200.416615 919.475,183.500117 919.475,160 C919.475,136.499883 924.974945,119.583385 935.975,109.25 Z M978.225,176.5 C979.725008,179.500015 982.391648,181 986.225,181 C990.058353,181 992.724993,179.500015 994.225,176.5 C995.725008,173.499985 996.475,167.958374 996.475,159.875 C996.475,151.791626 995.725008,146.250015 994.225,143.25 C992.724993,140.249985 990.058353,138.75 986.225,138.75 C982.391648,138.75 979.725008,140.249985 978.225,143.25 C976.724993,146.250015 975.975,151.791626 975.975,159.875 C975.975,167.958374 976.724993,173.499985 978.225,176.5 Z M1133.525,96.75 L1189.525,96.75 L1189.525,223 L1134.025,223 L1134.025,217 C1123.35828,223.166697 1113.85838,226.25 1105.525,226.25 C1087.85825,226.25 1075.52504,221.125051 1068.525,210.875 C1061.52497,200.624949 1058.025,184.333445 1058.025,162 L1058.025,96.75 L1114.025,96.75 L1114.025,158.25 C1114.025,165.750038 1114.69166,170.916652 1116.025,173.75 C1117.35834,176.583348 1119.52499,178 1122.525,178 L1133.525,176.5 L1133.525,96.75 Z M1255.075,223 L1199.075,223 L1199.075,96.75 L1255.075,96.75 L1255.075,108.5 C1265.57505,98.49995 1274.4083,93.5 1281.575,93.5 L1281.575,145.5 C1275.9083,145.5 1268.57505,147.749977 1259.575,152.25 L1255.075,154.5 L1255.075,223 Z" id="WatchYour" fill="#FFFFFF" fill-rule="nonzero"></path>
    </g>
</svg>